Coordinates
version=1
nRows=17
nColumns=40
inDegrees=yes

Units are S.I. units (second, meters, Newtons, ...)
If the header above contains a line with 'inDegrees', this indicates whether rotational values are in degrees (yes) or radians (no).

endheader
time	pelvis_tilt	pelvis_list	pelvis_rotation	pelvis_tx	pelvis_ty	pelvis_tz	hip_flexion_r	hip_adduction_r	hip_rotation_r	knee_angle_r	knee_angle_r_beta	ankle_angle_r	subtalar_angle_r	mtp_angle_r	hip_flexion_l	hip_adduction_l	hip_rotation_l	knee_angle_l	knee_angle_l_beta	ankle_angle_l	subtalar_angle_l	mtp_angle_l	lumbar_extension	lumbar_bending	lumbar_rotation	arm_flex_r	arm_add_r	arm_rot_r	elbow_flex_r	pro_sup_r	wrist_flex_r	wrist_dev_r	arm_flex_l	arm_add_l	arm_rot_l	elbow_flex_l	pro_sup_l	wrist_flex_l	wrist_dev_l
      8.15000000	    -22.83541053	    -37.58081666	     89.98902243	      0.35684692	      0.84419683	     -0.67230250	     69.21536531	      6.23770089	     39.97595124	     47.56016311	      0.83008144	     -9.90508942	      0.00000000	      0.00000000	     19.30359551	     23.67753201	    -39.98192122	      0.02083766	      0.00036369	     11.87313511	      0.00000000	      0.00000000	     47.01593025	    -41.53107138	     89.54235006	     21.33410348	      6.00931159	      2.38848726	     15.64905367	     36.12906459	      0.00000000	      0.00000000	     11.79305963	    -30.33474788	     35.06437067	     38.26603383	     56.44981151	      0.00000000	      0.00000000
      8.15500000	    -23.17895265	    -37.73568761	     89.98900999	      0.35609997	      0.84389871	     -0.67209415	     69.47972240	      5.87384668	     39.97603466	     47.69836802	      0.83249357	     -9.87376730	      0.00000000	      0.00000000	     19.43327895	     24.05736698	    -39.98187644	      0.02081867	      0.00036335	     11.96568996	      0.00000000	      0.00000000	     47.13488302	    -41.55690904	     89.55731940	     21.09837554	      5.90637097	      2.37431677	     15.91509540	     36.23552847	      0.00000000	      0.00000000	     11.70006106	    -30.13721185	     34.80785504	     38.19431830	     56.24872167	      0.00000000	      0.00000000
      8.16000000	    -22.96631681	    -37.73830840	     89.98898956	      0.35586633	      0.84380096	     -0.67214920	     69.44824585	      6.06481207	     39.97601083	     47.67782398	      0.83213501	     -9.77550469	      0.00000000	      0.00000000	     19.45258358	     23.87151319	    -39.98189364	      0.02083333	      0.00036361	     12.00933864	      0.00000000	      0.00000000	     47.09276540	    -40.97372718	     89.54250262	     20.60637831	      5.82353278	      2.35609650	     16.36217880	     36.35133620	      0.00000000	      0.00000000	     11.33814461	    -30.12865458	     34.57126968	     38.32772168	     56.06228275	      0.00000000	      0.00000000
      8.16500000	    -23.34958082	    -37.97111792	     89.98897706	      0.35490407	      0.84343302	     -0.67186699	     69.81298272	      5.66039912	     39.97612881	     47.84272692	      0.83501311	     -9.76854714	      0.00000000	      0.00000000	     19.66730221	     24.29945082	    -39.98184616	      0.02082673	      0.00036349	     12.03051961	      0.00000000	      0.00000000	     47.28785845	    -41.00470042	     89.56373411	     20.44559548	      5.77710121	      2.35240644	     16.46898503	     36.43728982	      0.00000000	      0.00000000	     11.20466333	    -29.84810389	     34.17195817	     38.18041464	     55.87332247	      0.00000000	      0.00000000
      8.17000000	    -23.47471695	    -38.10518670	     89.98894780	      0.35424340	      0.84318695	     -0.67180544	     70.00397099	      5.51378860	     39.97615239	     47.93365461	      0.83660010	     -9.69593382	      0.00000000	      0.00000000	     19.78955171	     24.45844434	    -39.98182931	      0.02081058	      0.00036321	     12.01152966	      0.00000000	      0.00000000	     47.41256790	    -40.76895337	     89.56802252	     20.26247367	      5.77093353	      2.35576665	     16.48322039	     36.51930502	      0.00000000	      0.00000000	     10.93428670	    -29.63086422	     33.58964561	     37.97397076	     55.67569704	      0.00000000	      0.00000000
      8.17500000	    -23.57319060	    -38.17994072	     89.98893987	      0.35368510	      0.84302082	     -0.67172427	     70.12339371	      5.39466412	     39.97620302	     47.99692505	      0.83770437	     -9.65250714	      0.00000000	      0.00000000	     19.85770508	     24.58457084	    -39.98180835	      0.02082936	      0.00036354	     12.04364312	      0.00000000	      0.00000000	     47.44728033	    -40.51726598	     89.57744342	     20.08456764	      5.72618116	      2.35245960	     16.47976913	     36.59829329	      0.00000000	      0.00000000	     10.64484146	    -29.31753348	     32.89306813	     37.86432950	     55.48210151	      0.00000000	      0.00000000
      8.18000000	    -23.58978493	    -38.15489870	     89.98892569	      0.35314250	      0.84306450	     -0.67171906	     70.11741024	      5.34376872	     39.97622912	     48.03591524	      0.83838488	     -9.57967668	      0.00000000	      0.00000000	     19.82512928	     24.63420399	    -39.98180741	      0.02081758	      0.00036334	     12.00329143	      0.00000000	      0.00000000	     47.32780151	    -40.20671272	     89.54149007	     21.39502450	      6.03518230	      2.43613028	     13.80967794	     36.44741023	      0.00000000	      0.00000000	     10.23578241	    -27.45039269	     28.86667073	     36.40671732	     55.27331041	      0.00000000	      0.00000000
      8.18500000	    -23.75477979	    -38.18644210	     89.98892973	      0.35243741	      0.84293094	     -0.67169869	     70.20774118	      5.15476763	     39.97628130	     48.13729315	      0.84015426	     -9.49939372	      0.00000000	      0.00000000	     19.83164815	     24.83205237	    -39.98178422	      0.02082740	      0.00036351	     12.02246103	      0.00000000	      0.00000000	     47.32575124	    -40.00841157	     89.55941453	     21.15046592	      5.97741384	      2.42284953	     13.92996160	     36.48365910	      0.00000000	      0.00000000	     10.04824450	    -27.34835551	     28.71230111	     36.41083696	     55.21112504	      0.00000000	      0.00000000
      8.19000000	    -23.92998924	    -38.26868882	     89.98892723	      0.35165555	      0.84275945	     -0.67154229	     70.35055077	      4.94808319	     39.97635282	     48.21810477	      0.84156469	     -9.41790835	      0.00000000	      0.00000000	     19.89886543	     25.04311868	    -39.98176529	      0.02082130	      0.00036340	     12.03740277	      0.00000000	      0.00000000	     47.37663895	    -39.82690332	     89.56989359	     20.90506552	      5.90361473	      2.40758866	     14.06137873	     36.52235205	      0.00000000	      0.00000000	      9.82536504	    -27.21619501	     28.45563442	     36.40672552	     55.13706461	      0.00000000	      0.00000000
      8.19500000	    -24.17086214	    -38.35780134	     89.98891420	      0.35084211	      0.84260084	     -0.67142904	     70.52532672	      4.67821306	     39.97638723	     48.34140109	      0.84371661	     -9.34232370	      0.00000000	      0.00000000	     19.95900038	     25.31606775	    -39.98173529	      0.02080534	      0.00036312	     11.95221748	      0.00000000	      0.00000000	     47.44763083	    -39.71592136	     89.57300534	     20.70822493	      5.89850154	      2.40384524	     14.08968588	     36.55162660	      0.00000000	      0.00000000	      9.57247184	    -26.98307760	     27.91834893	     36.30899089	     55.05565400	      0.00000000	      0.00000000
      8.20000000	    -24.08754208	    -38.33485985	     89.98890316	      0.35057609	      0.84252607	     -0.67149624	     70.50539918	      4.75236872	     39.97635312	     48.37541975	      0.84431035	     -9.32678084	      0.00000000	      0.00000000	     19.93084869	     25.24179432	    -39.98173554	      0.02081146	      0.00036323	     11.98451555	      0.00000000	      0.00000000	     47.41751383	    -39.28361194	     89.57022937	     20.39842223	      5.86419504	      2.39190512	     14.31329875	     36.60107914	      0.00000000	      0.00000000	      9.39322011	    -26.91772362	     27.75652869	     36.43845938	     54.97993123	      0.00000000	      0.00000000
      8.20500000	    -24.07727960	    -38.34087196	     89.98889035	      0.35011729	      0.84245158	     -0.67140507	     70.53287040	      4.74576765	     39.97637073	     48.41303287	      0.84496682	     -9.30313960	      0.00000000	      0.00000000	     19.93869312	     25.25070136	    -39.98172537	      0.02086467	      0.00036416	     12.02320459	      0.00000000	      0.00000000	     47.38457745	    -38.92950442	     89.57293161	     20.09678125	      5.78257867	      2.37336115	     14.51929373	     36.64828427	      0.00000000	      0.00000000	      9.16222037	    -26.82785998	     27.59658124	     36.52606006	     54.90220856	      0.00000000	      0.00000000
      8.21000000	    -24.73377523	    -38.54289589	     89.98889038	      0.34877165	      0.84211276	     -0.67103035	     70.92761774	      4.05487340	     39.97652295	     48.65095897	      0.84911942	     -9.19782328	      0.00000000	      0.00000000	     20.08798150	     25.94937571	    -39.98164727	      0.02084020	      0.00036373	     11.95124282	      0.00000000	      0.00000000	     47.55126359	    -39.30270809	     89.58968644	     19.93200859	      5.74258338	      2.36785800	     14.69302329	     36.70531675	      0.00000000	      0.00000000	      8.93967991	    -26.49420366	     26.85657920	     36.28352024	     54.74488886	      0.00000000	      0.00000000
      8.21500000	    -24.57047694	    -38.52340399	     89.98886274	      0.34852320	      0.84203991	     -0.67102273	     70.88992773	      4.21403656	     39.97648896	     48.65962762	      0.84927071	     -9.14357292	      0.00000000	      0.00000000	     20.08083576	     25.79709354	    -39.98164831	      0.02087224	      0.00036429	     11.97098844	      0.00000000	      0.00000000	     47.53266327	    -38.81893807	     89.57772171	     19.54245828	      5.66361015	      2.34891386	     14.99679742	     36.77359705	      0.00000000	      0.00000000	      8.65581022	    -26.43262646	     26.62711343	     36.39201547	     54.63457733	      0.00000000	      0.00000000
      8.22000000	    -24.99935492	    -38.55304209	     89.98886123	      0.34740387	      0.84205553	     -0.67065492	     71.04210432	      3.72727727	     39.97662272	     48.77410581	      0.85126874	     -9.05443698	      0.00000000	      0.00000000	     20.07648469	     26.26833168	    -39.98158901	      0.02086596	      0.00036418	     11.82768622	      0.00000000	      0.00000000	     47.41426211	    -38.98981579	     89.55413323	     20.60172757	      5.84171727	      2.41056402	     12.96065853	     36.59334104	      0.00000000	      0.00000000	      8.90385702	    -23.67592658	     21.27197217	     33.82873005	     54.24591334	      0.00000000	      0.00000000
      8.22500000	    -25.03064142	    -38.64822451	     89.98882673	      0.34656418	      0.84186735	     -0.67039296	     71.14981089	      3.63927974	     39.97669342	     48.75655213	      0.85096237	     -9.00611081	      0.00000000	      0.00000000	     20.18893792	     26.34075996	    -39.98152221	      0.02096804	      0.00036596	     11.96140896	      0.00000000	      0.00000000	     47.48151816	    -38.68186442	     89.56779325	     20.18416394	      5.69177312	      2.38908008	     13.33442467	     36.65657772	      0.00000000	      0.00000000	      8.59689170	    -23.58433474	     21.09102203	     33.99782164	     54.15054742	      0.00000000	      0.00000000
      8.23000000	    -25.42495508	    -38.75148075	     89.98882200	      0.34560153	      0.84156923	     -0.67017685	     71.37429659	      3.22805545	     39.97681440	     48.92979121	      0.85398596	     -8.85972741	      0.00000000	      0.00000000	     20.25208130	     26.76025288	    -39.98147141	      0.02094336	      0.00036553	     11.87347037	      0.00000000	      0.00000000	     47.59043555	    -38.77878632	     89.56534890	     19.82621544	      5.66658901	      2.38242969	     13.78065594	     36.74141724	      0.00000000	      0.00000000	      8.39383027	    -23.51557612	     20.78024167	     34.02670191	     54.00590423	      0.00000000	      0.00000000
